<svg width="30" height="34" viewBox="0 0 30 34" fill="none" xmlns="http://www.w3.org/2000/svg">
<g id="react-2 1">
<g id="Group">
<path id="Vector" d="M30 16.803C30 14.8496 27.5112 12.9984 23.6955 11.8504C24.576 8.02773 24.1847 4.98643 22.4603 4.01273C22.0628 3.78433 21.598 3.67615 21.0905 3.67615V5.01648C21.3718 5.01648 21.598 5.07057 21.7876 5.17275C22.6192 5.64157 22.98 7.42668 22.6987 9.72268C22.6315 10.2877 22.5214 10.8827 22.3869 11.4898C21.1883 11.2013 19.8797 10.9789 18.5039 10.8346C17.6784 9.72268 16.8223 8.71292 15.96 7.82938C17.9535 6.00821 19.8247 5.01047 21.0966 5.01047V3.67014C19.415 3.67014 17.2136 4.84819 14.9878 6.89175C12.7619 4.86021 10.5605 3.69418 8.87892 3.69418V5.03451C10.1447 5.03451 12.022 6.02624 14.0155 7.83539C13.1594 8.71893 12.3033 9.72268 11.49 10.8346C10.108 10.9789 8.79943 11.2013 7.6009 11.4958C7.46025 10.8947 7.3563 10.3117 7.28292 9.75273C6.99552 7.45673 7.35018 5.67162 8.1757 5.19679C8.35915 5.08861 8.59764 5.04052 8.87892 5.04052V3.70019C8.36527 3.70019 7.90053 3.80838 7.49694 4.03677C5.77864 5.01047 5.3934 8.04576 6.28007 11.8564C2.47656 13.0104 0 14.8556 0 16.803C0 18.7564 2.48879 20.6076 6.30452 21.7556C5.42397 25.5783 5.81533 28.6196 7.53975 29.5933C7.93722 29.8217 8.40196 29.9299 8.91561 29.9299C10.5972 29.9299 12.7986 28.7518 15.0245 26.7083C17.2503 28.7398 19.4517 29.9058 21.1333 29.9058C21.647 29.9058 22.1117 29.7976 22.5153 29.5692C24.2336 28.5955 24.6188 25.5603 23.7322 21.7496C27.5234 20.6016 30 18.7504 30 16.803ZM22.0383 12.794C21.8121 13.5694 21.5308 14.3688 21.2128 15.1682C20.9621 14.6873 20.6991 14.2065 20.4117 13.7256C20.1305 13.2448 19.8308 12.776 19.5312 12.3192C20.3995 12.4454 21.2373 12.6017 22.0383 12.794ZM19.2377 19.1952C18.7607 20.0066 18.2715 20.7759 17.764 21.4912C16.8528 21.5693 15.9295 21.6114 15 21.6114C14.0766 21.6114 13.1533 21.5693 12.2483 21.4972C11.7407 20.7819 11.2454 20.0186 10.7684 19.2132C10.3037 18.4258 9.88178 17.6264 9.49654 16.821C9.87566 16.0156 10.3037 15.2102 10.7623 14.4229C11.2393 13.6114 11.7285 12.8421 12.236 12.1269C13.1472 12.0487 14.0705 12.0067 15 12.0067C15.9234 12.0067 16.8467 12.0487 17.7517 12.1209C18.2593 12.8361 18.7546 13.5994 19.2316 14.4048C19.6963 15.1922 20.1182 15.9916 20.5035 16.797C20.1182 17.6024 19.6963 18.4078 19.2377 19.1952ZM21.2128 18.4138C21.543 19.2192 21.8243 20.0246 22.0567 20.806C21.2556 20.9983 20.4117 21.1606 19.5373 21.2868C19.8369 20.824 20.1366 20.3492 20.4179 19.8623C20.6991 19.3815 20.9621 18.8947 21.2128 18.4138ZM15.0122 24.827C14.4435 24.25 13.8748 23.6069 13.3123 22.9036C13.8626 22.9277 14.4252 22.9457 14.9939 22.9457C15.5687 22.9457 16.1374 22.9337 16.6938 22.9036C16.1435 23.6069 15.5748 24.25 15.0122 24.827ZM10.4627 21.2868C9.59437 21.1606 8.75662 21.0043 7.95556 20.812C8.18182 20.0366 8.46311 19.2372 8.78108 18.4379C9.0318 18.9187 9.29474 19.3995 9.58214 19.8804C9.86955 20.3612 10.1631 20.83 10.4627 21.2868ZM14.9817 8.77903C15.5503 9.35604 16.119 9.99916 16.6816 10.7024C16.1313 10.6783 15.5687 10.6603 15 10.6603C14.4252 10.6603 13.8565 10.6723 13.3 10.7024C13.8504 9.99916 14.4191 9.35604 14.9817 8.77903ZM10.4566 12.3192C10.157 12.782 9.85732 13.2568 9.57603 13.7437C9.29474 14.2245 9.0318 14.7054 8.78108 15.1862C8.45088 14.3808 8.16959 13.5754 7.93722 12.794C8.73828 12.6077 9.58215 12.4454 10.4566 12.3192ZM4.92254 19.8443C2.75785 18.9367 1.35752 17.7467 1.35752 16.803C1.35752 15.8594 2.75785 14.6633 4.92254 13.7617C5.44843 13.5393 6.02324 13.341 6.61639 13.1547C6.96494 14.3327 7.42356 15.5588 7.99225 16.815C7.42968 18.0652 6.97717 19.2853 6.63473 20.4574C6.02935 20.271 5.45455 20.0667 4.92254 19.8443ZM8.21239 28.4333C7.38076 27.9644 7.01998 26.1793 7.30126 23.8833C7.36853 23.3184 7.4786 22.7233 7.61313 22.1163C8.81166 22.4048 10.1203 22.6272 11.4961 22.7714C12.3216 23.8833 13.1777 24.8931 14.04 25.7766C12.0465 27.5978 10.1753 28.5955 8.90338 28.5955C8.62821 28.5895 8.39584 28.5354 8.21239 28.4333ZM22.7171 23.8533C23.0045 26.1493 22.6498 27.9344 21.8243 28.4092C21.6408 28.5174 21.4024 28.5655 21.1211 28.5655C19.8553 28.5655 17.978 27.5738 15.9845 25.7646C16.8406 24.8811 17.6967 23.8773 18.51 22.7654C19.892 22.6211 21.2006 22.3988 22.3991 22.1042C22.5397 22.7113 22.6498 23.2943 22.7171 23.8533ZM25.0713 19.8443C24.5455 20.0667 23.9706 20.265 23.3775 20.4514C23.0289 19.2733 22.5703 18.0472 22.0016 16.791C22.5642 15.5408 23.0167 14.3207 23.3592 13.1486C23.9645 13.335 24.5393 13.5393 25.0775 13.7617C27.2422 14.6693 28.6425 15.8594 28.6425 16.803C28.6364 17.7467 27.236 18.9427 25.0713 19.8443Z" fill="#61DAFB"/>
<path id="Vector_2" d="M14.9939 19.5498C16.5373 19.5498 17.7884 18.32 17.7884 16.803C17.7884 15.286 16.5373 14.0562 14.9939 14.0562C13.4505 14.0562 12.1993 15.286 12.1993 16.803C12.1993 18.32 13.4505 19.5498 14.9939 19.5498Z" fill="#61DAFB"/>
</g>
</g>
</svg>
